<svg width="167" height="207" viewBox="0 0 167 207" fill="none" xmlns="http://www.w3.org/2000/svg">
<text fill="#828282" xml:space="preserve" style="white-space: pre" font-family="Gilroy-Bold" font-size="14" letter-spacing="0em"><tspan x="60.7227" y="123.09">Adobe &#10;</tspan><tspan x="44.8155" y="140.422">After Effects</tspan></text>
<path d="M43.0703 4.45312H124.831V85.458H43.0703V4.45312Z" fill="url(#paint0_radial)"/>
<path d="M43.0703 4.45367H124.831V85.4586H43.0703V4.45367ZM39.3547 89.2423H128.564V0.669922H39.3547V89.2423ZM102.466 43.3644C104.359 43.3644 105.038 43.3644 105.217 43.2916C105.217 43.0188 105.288 42.8369 105.288 42.6549C105.288 40.6175 104.324 36.8338 100.465 36.8338C96.8926 36.8338 95.3742 40.0172 94.9991 43.3826H102.466V43.3644ZM94.9276 48.5489C94.9991 53.6606 97.3749 57.0987 103.038 57.0987C105.235 57.0987 107.128 56.7894 109.093 55.9344C109.361 55.8253 109.54 55.8617 109.54 56.2073V60.937C109.54 61.319 109.433 61.5009 109.165 61.701C107.2 62.6833 104.735 63.1381 101.698 63.1381C91.8908 63.1381 88.211 55.7525 88.211 47.5483C88.211 38.6165 92.7483 31.3037 100.733 31.3037C108.843 31.3037 111.666 38.2345 111.666 43.8737C111.666 45.6929 111.558 47.1663 111.362 47.894C111.29 48.2032 111.183 48.3124 110.88 48.3851C110.129 48.4943 107.95 48.658 104.681 48.658H94.9455V48.5489H94.9276ZM74.9921 44.6923C73.956 40.4902 71.4194 31.3401 70.4905 26.9015H70.4191C69.6331 31.3219 67.5967 38.8166 66.0783 44.6923H74.9921ZM64.5599 50.8227L61.6303 62.1376C61.5589 62.4468 61.4517 62.556 61.0766 62.556H55.5925C55.2174 62.556 55.1459 62.4468 55.2174 61.9921L65.7746 24.4093C65.9533 23.7362 66.0783 23.1905 66.1498 21.2986C66.1498 21.0257 66.2569 20.9166 66.4534 20.9166H74.2597C74.5277 20.9166 74.6348 20.9894 74.7063 21.2986L86.514 62.0648C86.5854 62.3741 86.514 62.556 86.2103 62.556H80.0832C79.7795 62.556 79.6008 62.4468 79.5294 62.174L76.4748 50.8227H64.5599Z" fill="#D8A1FF"/>
<path d="M12.2142 183.86C12.514 182.939 13.816 182.939 14.1158 183.86L15.8669 189.234C16.001 189.646 16.3848 189.924 16.8177 189.924H22.4785C23.4478 189.924 23.8502 191.165 23.0652 191.734L18.4903 195.049C18.1388 195.303 17.9918 195.756 18.1262 196.168L19.8748 201.535C20.1748 202.456 19.1215 203.223 18.3373 202.654L13.7517 199.332C13.4017 199.078 12.9283 199.078 12.5783 199.332L7.99273 202.654C7.20847 203.223 6.15518 202.456 6.4552 201.535L8.20377 196.168C8.33823 195.756 8.19115 195.303 7.83969 195.049L3.26482 191.734C2.47981 191.165 2.88214 189.924 3.85153 189.924H9.51229C9.94522 189.924 10.329 189.646 10.4631 189.234L12.2142 183.86Z" fill="#070707"/>
<path d="M47.3116 183.86C47.6114 182.939 48.9134 182.939 49.2132 183.86L50.9643 189.234C51.0984 189.646 51.4822 189.924 51.9151 189.924H57.5759C58.5453 189.924 58.9476 191.165 58.1626 191.734L53.5877 195.049C53.2362 195.303 53.0892 195.756 53.2236 196.168L54.9722 201.535C55.2722 202.456 54.2189 203.223 53.4347 202.654L48.8491 199.332C48.4991 199.078 48.0257 199.078 47.6757 199.332L43.0901 202.654C42.3059 203.223 41.2526 202.456 41.5526 201.535L43.3012 196.168C43.4356 195.756 43.2886 195.303 42.9371 195.049L38.3622 191.734C37.5772 191.165 37.9796 189.924 38.9489 189.924H44.6097C45.0426 189.924 45.4264 189.646 45.5605 189.234L47.3116 183.86Z" fill="#070707"/>
<path d="M82.4088 183.86C82.7086 182.939 84.0105 182.939 84.3104 183.86L86.0615 189.234C86.1956 189.646 86.5793 189.924 87.0123 189.924H92.673C93.6424 189.924 94.0448 191.165 93.2598 191.734L88.6849 195.049C88.3334 195.303 88.1863 195.756 88.3208 196.168L90.0694 201.535C90.3694 202.456 89.3161 203.223 88.5318 202.654L83.9463 199.332C83.5963 199.078 83.1229 199.078 82.7729 199.332L78.1873 202.654C77.403 203.223 76.3498 202.456 76.6498 201.535L78.3984 196.168C78.5328 195.756 78.3857 195.303 78.0343 195.049L73.4594 191.734C72.6744 191.165 73.0767 189.924 74.0461 189.924H79.7069C80.1398 189.924 80.5236 189.646 80.6577 189.234L82.4088 183.86Z" fill="#070707"/>
<path d="M117.506 183.86C117.806 182.939 119.108 182.939 119.408 183.86L121.159 189.234C121.293 189.646 121.677 189.924 122.109 189.924H127.77C128.74 189.924 129.142 191.165 128.357 191.734L123.782 195.049C123.431 195.303 123.284 195.756 123.418 196.168L125.167 201.535C125.467 202.456 124.413 203.223 123.629 202.654L119.043 199.332C118.693 199.078 118.22 199.078 117.87 199.332L113.284 202.654C112.5 203.223 111.447 202.456 111.747 201.535L113.496 196.168C113.63 195.756 113.483 195.303 113.131 195.049L108.557 191.734C107.772 191.165 108.174 189.924 109.143 189.924H114.804C115.237 189.924 115.621 189.646 115.755 189.234L117.506 183.86Z" fill="#070707"/>
<path d="M152.603 183.86C152.903 182.939 154.205 182.939 154.504 183.86L156.256 189.234C156.39 189.646 156.773 189.924 157.206 189.924H162.867C163.837 189.924 164.239 191.165 163.454 191.734L158.879 195.049C158.528 195.303 158.38 195.756 158.515 196.168L160.263 201.535C160.563 202.456 159.51 203.223 158.726 202.654L154.14 199.332C153.79 199.078 153.317 199.078 152.967 199.332L148.381 202.654C147.597 203.223 146.544 202.456 146.844 201.535L148.592 196.168C148.727 195.756 148.58 195.303 148.228 195.049L143.653 191.734C142.868 191.165 143.271 189.924 144.24 189.924H149.901C150.334 189.924 150.718 189.646 150.852 189.234L152.603 183.86Z" fill="#E5E5E5"/>
<defs>
<radialGradient id="paint0_radial" cx="0" cy="0" r="1" gradientUnits="userSpaceOnUse" gradientTransform="translate(70.0228 22.6143) scale(62.1407 61.2673)">
<stop stop-color="#442F55" stop-opacity="0.98"/>
<stop offset="1" stop-color="#12002C"/>
</radialGradient>
</defs>
</svg>
